# xmcd
#
# Track frame offsets:
#	150
#	18254
#	29848
#	45700
#	65838
#	81911
#	103893
#	117742
#	132859
#	149554
#	171416
#	187167
#	204153
#	219816
#	237991
#
# Disc length: 3337 seconds
#
# Revision: 0
# Processed by: cddbd v1.5.2PL0 Copyright (c) Steve Scherf et al.
# Submitted via: audiograbber 1.83.01
#
DISCID=ea0d070f
DTITLE=Various Artist - CB-E9-04
DYEAR=2008
DGENRE=Karaoke
TTITLE0=Ronnie Milsap - Any Day Now
TTITLE1=Jerry Reed - Amos Moses
TTITLE2=Crystal Gayle - If You Ever Change Your Mind
TTITLE3=Don Williams - Good Ole Boys Like Me
TTITLE4=Charly McClain - Radio Heart
TTITLE5=Merle Haggard - I Think I'll Just Stay Here And Drink
TTITLE6=Waylon Jennings - Lovin' Her Was Easier
TTITLE7=Judds, The - Working In The Coal Mine
TTITLE8=Conway Twitty - Rose, The
TTITLE9=Dolly Parton - He's Alive
TTITLE10=Reba McEntire - Last One To Know, The
TTITLE11=Alabama - Closer You Get, The
TTITLE12=George Strait - Does Fort Worth Ever Cross Your Mind
TTITLE13=Dolly Parton - Yellow Roses
TTITLE14=George Jones - The One I Loved Back Then (The Corvette Song) 
EXTD=
EXTT0=
EXTT1=
EXTT2=
EXTT3=
EXTT4=
EXTT5=
EXTT6=
EXTT7=
EXTT8=
EXTT9=
EXTT10=
EXTT11=
EXTT12=
EXTT13=
EXTT14=
PLAYORDER=
